<svg width="16" height="16" viewBox="0 0 16 16" fill="none" xmlns="http://www.w3.org/2000/svg">
<rect x="0.5" y="0.5" width="15" height="15" rx="7.5" stroke="#565656"/>
<path fill-rule="evenodd" clip-rule="evenodd" d="M12.4716 4.86194C12.5966 4.98696 12.6668 5.1565 12.6668 5.33327C12.6668 5.51005 12.5966 5.67959 12.4716 5.80461L7.13827 11.1379C7.01325 11.2629 6.84371 11.3331 6.66694 11.3331C6.49016 11.3331 6.32062 11.2629 6.19561 11.1379L3.52894 8.47127C3.4075 8.34554 3.3403 8.17714 3.34182 8.00234C3.34334 7.82754 3.41345 7.66033 3.53706 7.53673C3.66066 7.41312 3.82787 7.34301 4.00267 7.34149C4.17747 7.33997 4.34587 7.40717 4.4716 7.52861L6.66694 9.72394L11.5289 4.86194C11.654 4.73696 11.8235 4.66675 12.0003 4.66675C12.177 4.66675 12.3466 4.73696 12.4716 4.86194Z" fill="#565656"/>
</svg>
