<svg width="12" height="10" viewBox="0 0 12 10" fill="none" xmlns="http://www.w3.org/2000/svg">
<path d="M8.54228 0.875613L3.97917 5.43873L2.74939 4.20895C2.49368 3.95324 2.16767 3.83333 1.8125 3.83333C1.45733 3.83333 1.13132 3.95324 0.875613 4.20895C0.619904 4.46465 0.5 4.79066 0.5 5.14583C0.5 5.50101 0.619904 5.82701 0.875613 6.08272L3.04228 8.24939C3.2964 8.50351 3.61567 8.64583 3.97917 8.64583C4.34267 8.64583 4.66193 8.50351 4.91605 8.24939L10.4161 2.74939C10.6718 2.49368 10.7917 2.16768 10.7917 1.8125C10.7917 1.45732 10.6718 1.13132 10.4161 0.875613C10.1603 0.619904 9.83434 0.5 9.47917 0.5C9.12399 0.5 8.79799 0.619904 8.54228 0.875613Z" fill="#6BFF7A" stroke="#5ECC69"/>
</svg>
