<svg width="59" height="56" viewBox="0 0 59 56" fill="none" xmlns="http://www.w3.org/2000/svg">
<path d="M58.7503 21.0125C58.4463 20.0808 57.8753 19.259 57.1081 18.6492C56.3409 18.0394 55.4115 17.6684 54.4353 17.5825L40.1853 16.35L34.6103 3.06499C34.2268 2.16156 33.5858 1.39096 32.7674 0.849261C31.949 0.307559 30.9892 0.0187073 30.0078 0.0187073C29.0263 0.0187073 28.0665 0.307559 27.2481 0.849261C26.4297 1.39096 25.7888 2.16156 25.4053 3.06499L19.8228 16.35L5.57276 17.5825C4.59123 17.6638 3.65556 18.0331 2.88316 18.6442C2.11076 19.2552 1.53602 20.0808 1.23107 21.0173C0.926116 21.9538 0.90453 22.9595 1.16902 23.9082C1.43351 24.8569 1.97229 25.7064 2.71776 26.35L13.5478 35.8L10.2978 49.86C10.0749 50.8174 10.1391 51.8193 10.4825 52.7403C10.8259 53.6614 11.4332 54.4608 12.2285 55.0387C13.0237 55.6165 13.9716 55.9471 14.9537 55.9891C15.9358 56.0312 16.9086 55.7828 17.7503 55.275L30.0003 47.835L42.2503 55.275C43.0919 55.782 44.0643 56.0297 45.046 55.9873C46.0276 55.9448 46.975 55.6141 47.7698 55.0364C48.5646 54.4587 49.1716 53.6597 49.5149 52.7391C49.8582 51.8184 49.9227 50.817 49.7003 49.86L46.4503 35.8L57.2803 26.35C58.0237 25.704 58.5599 24.8528 58.8214 23.9033C59.0829 22.9537 59.0582 21.948 58.7503 21.0125ZM42.0628 31.6675C41.3771 32.264 40.8671 33.0361 40.5874 33.9007C40.3077 34.7654 40.2689 35.69 40.4753 36.575L43.3228 48.905L32.5878 42.385C31.8082 41.9103 30.913 41.6592 30.0003 41.6592C29.0875 41.6592 28.1923 41.9103 27.4128 42.385L16.6778 48.905L19.5253 36.575C19.7316 35.69 19.6929 34.7654 19.4132 33.9007C19.1334 33.0361 18.6234 32.264 17.9378 31.6675L8.41526 23.36L20.9503 22.275C21.858 22.1973 22.727 21.872 23.4627 21.3347C24.1984 20.7974 24.7726 20.0685 25.1228 19.2275L30.0003 7.60499L34.8778 19.2275C35.228 20.0685 35.8022 20.7974 36.5379 21.3347C37.2736 21.872 38.1426 22.1973 39.0503 22.275L51.5853 23.36L42.0628 31.6675Z" fill="#FF6B6B"/>
</svg>
