<svg width="16" height="16" viewBox="0 0 16 16" fill="none" xmlns="http://www.w3.org/2000/svg">
<path d="M7.74286 2.59989L9.1714 1.17136C9.54284 0.799915 9.98381 0.50527 10.4691 0.304246C10.9544 0.103222 11.4746 -0.000244135 11.9999 -0.000244141C12.5252 -0.000244146 13.0454 0.103222 13.5307 0.304245C14.016 0.505269 14.457 0.799915 14.8284 1.17136C15.1998 1.5428 15.4945 1.98377 15.6955 2.46909C15.8965 2.9544 16 3.47456 16 3.99986C16 4.52516 15.8965 5.04532 15.6955 5.53063C15.4945 6.01595 15.1998 6.45691 14.8284 6.82836L11.9713 9.68543C11.5999 10.0569 11.1589 10.3516 10.6736 10.5526C10.1883 10.7536 9.66814 10.8571 9.14283 10.8571C8.61752 10.8571 8.09736 10.7536 7.61204 10.5526C7.12672 10.3516 6.68576 10.0569 6.31433 9.68543C6.16301 9.52285 6.08061 9.30794 6.08444 9.08587C6.08828 8.86379 6.17805 8.65186 6.3349 8.4946C6.49216 8.33775 6.70409 8.24798 6.92616 8.24414C7.14823 8.24031 7.36315 8.32271 7.52573 8.47403C7.73785 8.68681 7.98988 8.85564 8.26738 8.97084C8.54487 9.08603 8.84237 9.14533 9.14283 9.14533C9.44328 9.14533 9.74078 9.08603 10.0183 8.97084C10.2958 8.85564 10.5478 8.68681 10.7599 8.47403L13.617 5.61696C14.025 5.18389 14.2483 4.6089 14.2394 4.01396C14.2306 3.41903 13.9903 2.85094 13.5695 2.43021C13.1488 2.00948 12.5807 1.76921 11.9858 1.76035C11.3909 1.75149 10.8159 1.97474 10.3828 2.38276L8.95426 3.81129C8.79168 3.96261 8.57677 4.04501 8.3547 4.04118C8.13263 4.03734 7.92069 3.94757 7.76343 3.79072C7.60659 3.63346 7.51681 3.42153 7.51298 3.19946C7.50914 2.97739 7.59154 2.76247 7.74286 2.59989ZM2.383 13.6168C2.59512 13.8295 2.84716 13.9984 3.12465 14.1136C3.40214 14.2288 3.69965 14.2881 4.0001 14.2881C4.30056 14.2881 4.59806 14.2288 4.87555 14.1136C5.15305 13.9984 5.40508 13.8295 5.6172 13.6168L7.04574 12.1882C7.20832 12.0369 7.42323 11.9545 7.6453 11.9583C7.86737 11.9622 8.07931 12.0519 8.23656 12.2088C8.39341 12.366 8.48319 12.578 8.48702 12.8001C8.49086 13.0221 8.40846 13.237 8.25714 13.3996L6.8286 14.8282C6.45716 15.1996 6.01619 15.4942 5.53087 15.6953C5.04556 15.8963 4.5254 15.9998 4.0001 15.9998C2.93921 15.9998 1.92177 15.5783 1.1716 14.8282C0.421438 14.078 0 13.0605 0 11.9997C0 10.9388 0.421438 9.92132 1.1716 9.17115L4.02867 6.31408C4.4001 5.94262 4.84107 5.64795 5.32638 5.44691C5.8117 5.24587 6.33186 5.1424 6.85717 5.1424C7.38248 5.1424 7.90264 5.24587 8.38796 5.44691C8.87328 5.64795 9.31424 5.94262 9.68567 6.31408C9.83699 6.47667 9.91939 6.69158 9.91556 6.91365C9.91172 7.13572 9.82195 7.34765 9.6651 7.50491C9.50784 7.66176 9.29591 7.75153 9.07384 7.75537C8.85176 7.7592 8.63685 7.6768 8.47427 7.52548C8.26215 7.3127 8.01012 7.14387 7.73262 7.02867C7.45513 6.91348 7.15763 6.85418 6.85717 6.85418C6.55672 6.85418 6.25921 6.91348 5.98172 7.02867C5.70422 7.14387 5.45219 7.3127 5.24007 7.52548L2.383 10.3826C2.17022 10.5947 2.00139 10.8467 1.88619 11.1242C1.771 11.4017 1.7117 11.6992 1.7117 11.9997C1.7117 12.3001 1.771 12.5976 1.88619 12.8751C2.00139 13.1526 2.17022 13.4046 2.383 13.6168Z" fill="#424242"/>
</svg>
