<svg width="20" height="20" viewBox="0 0 20 20" fill="none" xmlns="http://www.w3.org/2000/svg">
<path d="M11.028 0C12.153 0.00299985 12.7239 0.00899955 13.2169 0.0229988L13.4109 0.0299985C13.6349 0.0379981 13.8559 0.0479975 14.1229 0.0599969C15.1868 0.109994 15.9128 0.277986 16.5497 0.524974C17.2097 0.778961 17.7657 1.12294 18.3216 1.67792C18.8303 2.17762 19.2238 2.78233 19.4746 3.44983C19.7216 4.08679 19.8896 4.81276 19.9396 5.8777C19.9516 6.14369 19.9616 6.36468 19.9696 6.58967L19.9756 6.78366C19.9906 7.27563 19.9966 7.8466 19.9986 8.97155L19.9996 9.71751V11.0274C20.002 11.7568 19.9943 12.4862 19.9766 13.2153L19.9706 13.4093C19.9626 13.6343 19.9526 13.8553 19.9406 14.1213C19.8906 15.1862 19.7206 15.9112 19.4746 16.5492C19.2238 17.2167 18.8303 17.8214 18.3216 18.3211C17.8219 18.8297 17.2172 19.2232 16.5497 19.474C15.9128 19.721 15.1868 19.889 14.1229 19.939L13.4109 19.969L13.2169 19.975C12.7239 19.989 12.153 19.996 11.028 19.998L10.282 19.999H8.97312C8.24341 20.0016 7.51371 19.9939 6.78423 19.976L6.59024 19.97C6.35286 19.961 6.11553 19.9507 5.87827 19.939C4.81433 19.889 4.08836 19.721 3.45039 19.474C2.78326 19.2231 2.1789 18.8296 1.67948 18.3211C1.17045 17.8215 0.776638 17.2167 0.525542 16.5492C0.278555 15.9122 0.110563 15.1862 0.0605657 14.1213L0.0305672 13.4093L0.0255676 13.2153C0.00713457 12.4862 -0.00119923 11.7568 0.000568768 11.0274V8.97155C-0.00219899 8.24218 0.00513476 7.51282 0.0225677 6.78366L0.0295674 6.58967C0.0375669 6.36468 0.0475664 6.14369 0.0595658 5.8777C0.109563 4.81276 0.277555 4.08779 0.524542 3.44983C0.776224 2.78206 1.17073 2.17733 1.68048 1.67792C2.17961 1.16949 2.78362 0.776034 3.45039 0.524974C4.08836 0.277986 4.81333 0.109994 5.87827 0.0599969C6.14426 0.0479975 6.36625 0.0379981 6.59024 0.0299985L6.78423 0.0239987C7.51338 0.00623239 8.24275 -0.00143463 8.97212 0.000999877L11.028 0ZM10.0001 4.99975C8.67405 4.99975 7.40234 5.52651 6.46471 6.46414C5.52707 7.40177 5.00032 8.67348 5.00032 9.9995C5.00032 11.3255 5.52707 12.5972 6.46471 13.5349C7.40234 14.4725 8.67405 14.9992 10.0001 14.9992C11.3261 14.9992 12.5978 14.4725 13.5354 13.5349C14.4731 12.5972 14.9998 11.3255 14.9998 9.9995C14.9998 8.67348 14.4731 7.40177 13.5354 6.46414C12.5978 5.52651 11.3261 4.99975 10.0001 4.99975ZM10.0001 6.99965C10.394 6.99958 10.7841 7.07711 11.1481 7.22781C11.5121 7.3785 11.8428 7.59941 12.1214 7.87793C12.4 8.15644 12.6211 8.48711 12.7719 8.85104C12.9227 9.21498 13.0003 9.60505 13.0004 9.999C13.0005 10.3929 12.923 10.783 12.7723 11.147C12.6216 11.511 12.4006 11.8417 12.1221 12.1204C11.8436 12.399 11.513 12.62 11.149 12.7708C10.7851 12.9216 10.395 12.9993 10.0011 12.9993C9.20545 12.9993 8.44243 12.6833 7.87985 12.1207C7.31727 11.5581 7.00122 10.7951 7.00122 9.9995C7.00122 9.20389 7.31727 8.44086 7.87985 7.87828C8.44243 7.3157 9.20545 6.99965 10.0011 6.99965M15.2508 3.49982C14.9193 3.49982 14.6014 3.63151 14.367 3.86592C14.1326 4.10033 14.0009 4.41826 14.0009 4.74976C14.0009 5.08126 14.1326 5.39919 14.367 5.6336C14.6014 5.86801 14.9193 5.9997 15.2508 5.9997C15.5823 5.9997 15.9002 5.86801 16.1346 5.6336C16.369 5.39919 16.5007 5.08126 16.5007 4.74976C16.5007 4.41826 16.369 4.10033 16.1346 3.86592C15.9002 3.63151 15.5823 3.49982 15.2508 3.49982Z" fill="#535353"/>
</svg>
