<svg width="162" height="56" viewBox="0 0 162 56" fill="none" xmlns="http://www.w3.org/2000/svg">
<path d="M10.2278 42.656C10.2278 44.0553 10.5421 45.0799 11.1707 45.7296C11.8478 46.3293 12.96 46.6292 14.5075 46.6292H19.2224V55.4752H12.8391C4.2797 55.4752 0 51.1772 0 42.581V3.67336H10.2278V42.656Z" fill="#FF6B6B"/>
<path d="M64.4636 13.9438V55.4752H54.2358V50.2276C52.9301 52.0268 51.2134 53.4511 49.0857 54.5007C47.0063 55.5002 44.7334 56 42.2672 56C39.1239 56 36.3433 55.3253 33.9254 53.9759C31.5074 52.5765 29.5973 50.5524 28.1949 47.9036C26.8409 45.2048 26.1639 42.0062 26.1639 38.3079V13.9438H36.3191V36.8086C36.3191 40.1071 37.117 42.656 38.7128 44.4552C40.3086 46.2044 42.4848 47.079 45.2412 47.079C48.046 47.079 50.2463 46.2044 51.8421 44.4552C53.4379 42.656 54.2358 40.1071 54.2358 36.8086V13.9438H64.4636Z" fill="#FF6B6B"/>
<path d="M86.3069 22.5649V42.656C86.3069 44.0553 86.6213 45.0799 87.2499 45.7296C87.9269 46.3293 89.0392 46.6292 90.5866 46.6292H95.3016V55.4752H88.9183C80.3589 55.4752 76.0792 51.1772 76.0792 42.581V22.5649H71.2917V13.9438H76.0792V3.67336H86.3069V13.9438H95.3016V22.5649H86.3069Z" fill="#FF6B6B"/>
<path d="M125.237 13.344C128.284 13.344 130.992 14.0437 133.362 15.4431C135.731 16.7925 137.569 18.8166 138.874 21.5154C140.228 24.1642 140.905 27.3628 140.905 31.1111V55.4752H130.75V32.5355C130.75 29.2369 129.952 26.7131 128.356 24.9639C126.761 23.1647 124.585 22.2651 121.828 22.2651C119.023 22.2651 116.799 23.1647 115.155 24.9639C113.559 26.7131 112.761 29.2369 112.761 32.5355V55.4752H102.606V0H112.761V19.1165C114.067 17.3173 115.808 15.9179 117.984 14.9183C120.16 13.8688 122.578 13.344 125.237 13.344Z" fill="#FF6B6B"/>
<path d="M160.718 14.9183V55.4752H150.563V14.9183L155.713 18.2543L160.718 14.9183Z" fill="#FF6B6B"/>
<path d="M155.502 3.57339L162 8.10261L155.502 12.6318L149.004 8.10261L155.502 3.57339Z" fill="#292F36"/>
</svg>
