<svg width="12" height="12" viewBox="0 0 12 12" fill="none" xmlns="http://www.w3.org/2000/svg">
<rect width="12" height="12" fill="white"/>
<path fill-rule="evenodd" clip-rule="evenodd" d="M9.35322 3.64639C9.44695 3.74016 9.49961 3.86731 9.49961 3.99989C9.49961 4.13248 9.44695 4.25963 9.35322 4.35339L5.35322 8.35339C5.25945 8.44713 5.1323 8.49979 4.99972 8.49979C4.86713 8.49979 4.73998 8.44713 4.64622 8.35339L2.64622 6.35339C2.55514 6.25909 2.50474 6.13279 2.50588 6.00169C2.50702 5.87059 2.5596 5.74519 2.65231 5.65248C2.74501 5.55978 2.87042 5.5072 3.00151 5.50606C3.13261 5.50492 3.25891 5.55531 3.35322 5.64639L4.99972 7.29289L8.64622 3.64639C8.73998 3.55266 8.86713 3.5 8.99972 3.5C9.1323 3.5 9.25945 3.55266 9.35322 3.64639Z" fill="black"/>
</svg>
