<svg width="52" height="53" viewBox="0 0 52 53" fill="none" xmlns="http://www.w3.org/2000/svg">
<path d="M5.41667 42.0833V5.91667H23.5V24H41.5833V26.5833C43.3917 26.5833 45.1225 26.9192 46.75 27.4875V16.25L31.25 0.75H5.41667C2.54917 0.75 0.25 3.04917 0.25 5.91667V42.0833C0.25 43.4536 0.794343 44.7678 1.76328 45.7367C2.73222 46.7057 4.04638 47.25 5.41667 47.25H26.9875C26.4192 45.6225 26.0833 43.8917 26.0833 42.0833H5.41667ZM28.6667 4.625L42.875 18.8333H28.6667V4.625ZM51.9167 39.5V44.6667H44.1667V52.4167H39V44.6667H31.25V39.5H39V31.75H44.1667V39.5H51.9167Z" fill="#6BB8FF"/>
</svg>
