<svg width="20" height="21" viewBox="0 0 20 21" fill="none" xmlns="http://www.w3.org/2000/svg">
<path d="M11 10.675L13.25 12.925C13.4333 13.1083 13.525 13.3377 13.525 13.613C13.525 13.8877 13.4333 14.125 13.25 14.325C13.05 14.525 12.8127 14.625 12.538 14.625C12.2627 14.625 12.025 14.525 11.825 14.325L9.7 12.2C9.46667 11.9667 9.29167 11.7083 9.175 11.425C9.05833 11.1417 9 10.8333 9 10.5V7.5C9 7.21667 9.096 6.979 9.288 6.787C9.47933 6.59567 9.71667 6.5 10 6.5C10.2833 6.5 10.521 6.59567 10.713 6.787C10.9043 6.979 11 7.21667 11 7.5V10.675ZM10 2.5C10.2833 2.5 10.521 2.59567 10.713 2.787C10.9043 2.979 11 3.21667 11 3.5C11 3.78333 10.9043 4.021 10.713 4.213C10.521 4.40433 10.2833 4.5 10 4.5C9.71667 4.5 9.47933 4.40433 9.288 4.213C9.096 4.021 9 3.78333 9 3.5C9 3.21667 9.096 2.979 9.288 2.787C9.47933 2.59567 9.71667 2.5 10 2.5ZM18 10.5C18 10.7833 17.904 11.0207 17.712 11.212C17.5207 11.404 17.2833 11.5 17 11.5C16.7167 11.5 16.4793 11.404 16.288 11.212C16.096 11.0207 16 10.7833 16 10.5C16 10.2167 16.096 9.979 16.288 9.787C16.4793 9.59567 16.7167 9.5 17 9.5C17.2833 9.5 17.5207 9.59567 17.712 9.787C17.904 9.979 18 10.2167 18 10.5ZM10 16.5C10.2833 16.5 10.521 16.596 10.713 16.788C10.9043 16.9793 11 17.2167 11 17.5C11 17.7833 10.9043 18.0207 10.713 18.212C10.521 18.404 10.2833 18.5 10 18.5C9.71667 18.5 9.47933 18.404 9.288 18.212C9.096 18.0207 9 17.7833 9 17.5C9 17.2167 9.096 16.9793 9.288 16.788C9.47933 16.596 9.71667 16.5 10 16.5ZM4 10.5C4 10.7833 3.90433 11.0207 3.713 11.212C3.521 11.404 3.28333 11.5 3 11.5C2.71667 11.5 2.479 11.404 2.287 11.212C2.09567 11.0207 2 10.7833 2 10.5C2 10.2167 2.09567 9.979 2.287 9.787C2.479 9.59567 2.71667 9.5 3 9.5C3.28333 9.5 3.521 9.59567 3.713 9.787C3.90433 9.979 4 10.2167 4 10.5ZM10 20.5C8.61667 20.5 7.31667 20.2373 6.1 19.712C4.88333 19.1873 3.825 18.475 2.925 17.575C2.025 16.675 1.31267 15.6167 0.788 14.4C0.262667 13.1833 0 11.8833 0 10.5C0 9.11667 0.262667 7.81667 0.788 6.6C1.31267 5.38333 2.025 4.325 2.925 3.425C3.825 2.525 4.88333 1.81233 6.1 1.287C7.31667 0.762333 8.61667 0.5 10 0.5C11.3833 0.5 12.6833 0.762333 13.9 1.287C15.1167 1.81233 16.175 2.525 17.075 3.425C17.975 4.325 18.6873 5.38333 19.212 6.6C19.7373 7.81667 20 9.11667 20 10.5C20 11.8833 19.7373 13.1833 19.212 14.4C18.6873 15.6167 17.975 16.675 17.075 17.575C16.175 18.475 15.1167 19.1873 13.9 19.712C12.6833 20.2373 11.3833 20.5 10 20.5ZM10 18.5C12.2333 18.5 14.125 17.725 15.675 16.175C17.225 14.625 18 12.7333 18 10.5C18 8.26667 17.225 6.375 15.675 4.825C14.125 3.275 12.2333 2.5 10 2.5C7.76667 2.5 5.875 3.275 4.325 4.825C2.775 6.375 2 8.26667 2 10.5C2 12.7333 2.775 14.625 4.325 16.175C5.875 17.725 7.76667 18.5 10 18.5Z" fill="black"/>
</svg>
