<svg width="55" height="55" viewBox="0 0 55 55" fill="none" xmlns="http://www.w3.org/2000/svg">
<path d="M27.5 27.5C23.7188 27.5 20.4818 26.1536 17.7891 23.4609C15.0964 20.7682 13.75 17.5312 13.75 13.75C13.75 9.96875 15.0964 6.73177 17.7891 4.03906C20.4818 1.34635 23.7188 0 27.5 0C31.2812 0 34.5182 1.34635 37.2109 4.03906C39.9036 6.73177 41.25 9.96875 41.25 13.75C41.25 17.5312 39.9036 20.7682 37.2109 23.4609C34.5182 26.1536 31.2812 27.5 27.5 27.5ZM0 55V45.375C0 43.4271 0.501876 41.6361 1.50563 40.0022C2.50708 38.3705 3.83854 37.125 5.5 36.2656C9.05208 34.4896 12.6615 33.157 16.3281 32.2678C19.9948 31.3809 23.7188 30.9375 27.5 30.9375C31.2812 30.9375 35.0052 31.3809 38.6719 32.2678C42.3385 33.157 45.9479 34.4896 49.5 36.2656C51.1615 37.125 52.4929 38.3705 53.4944 40.0022C54.4981 41.6361 55 43.4271 55 45.375V55H0Z" fill="#6BB8FF"/>
</svg>
