<svg width="55" height="56" viewBox="0 0 55 56" fill="none" xmlns="http://www.w3.org/2000/svg">
<path d="M50 40.5V18H15V40.5H50ZM50 5.5C51.3261 5.5 52.5979 6.02678 53.5355 6.96447C54.4732 7.90215 55 9.17392 55 10.5V40.5C55 41.8261 54.4732 43.0979 53.5355 44.0355C52.5979 44.9732 51.3261 45.5 50 45.5H15C13.6739 45.5 12.4021 44.9732 11.4645 44.0355C10.5268 43.0979 10 41.8261 10 40.5V10.5C10 9.17392 10.5268 7.90215 11.4645 6.96447C12.4021 6.02678 13.6739 5.5 15 5.5H17.5V0.5H22.5V5.5H42.5V0.5H47.5V5.5H50ZM41.325 25.65L30.225 36.75L23.525 30.05L26.175 27.4L30.225 31.45L38.675 23L41.325 25.65ZM5 50.5H40V55.5H5C3.67392 55.5 2.40215 54.9732 1.46447 54.0355C0.526784 53.0979 0 51.8261 0 50.5V20.5H5V50.5Z" fill="#6BB8FF"/>
</svg>
