<svg width="10" height="8" viewBox="0 0 10 8" fill="none" xmlns="http://www.w3.org/2000/svg">
<path d="M2.97917 5.14583L7.89583 0.229166C8.04861 0.0763886 8.24306 0 8.47917 0C8.71528 0 8.90972 0.0763886 9.0625 0.229166C9.21528 0.381944 9.29167 0.576388 9.29167 0.8125C9.29167 1.04861 9.21528 1.24306 9.0625 1.39583L3.5625 6.89583C3.39583 7.0625 3.20139 7.14583 2.97917 7.14583C2.75694 7.14583 2.5625 7.0625 2.39583 6.89583L0.229166 4.72917C0.0763886 4.57639 0 4.38194 0 4.14583C0 3.90972 0.0763886 3.71528 0.229166 3.5625C0.381944 3.40972 0.576389 3.33333 0.8125 3.33333C1.04861 3.33333 1.24306 3.40972 1.39583 3.5625L2.97917 5.14583Z" fill="#FF6B6B"/>
</svg>
