<svg width="47" height="45" viewBox="0 0 47 45" fill="none" xmlns="http://www.w3.org/2000/svg">
<path fill-rule="evenodd" clip-rule="evenodd" d="M10.5833 0.75C12.8744 0.750305 15.1005 1.51163 16.9119 2.91439C20.0823 5.3695 23.3922 8.5 27.402 8.5H39C40.4267 8.5 41.5833 9.6566 41.5833 11.0833C41.5833 12.5101 40.4267 13.6667 39 13.6667H28.0428C23.6533 13.6667 20.015 17.1598 16.3786 19.6181C14.2982 21.0245 11.7771 21.6257 9.28593 21.3093C6.79478 20.9929 4.50394 19.7807 2.84115 17.8989C1.17837 16.0171 0.257326 13.5945 0.25 11.0833C0.25 8.34276 1.33869 5.71444 3.27656 3.77656C5.21444 1.83869 7.84276 0.75 10.5833 0.75ZM10.5833 16.25C11.9536 16.25 13.2678 15.7057 14.2367 14.7367C15.2057 13.7678 15.75 12.4536 15.75 11.0833C15.75 9.71305 15.2057 8.39889 14.2367 7.42995C13.2678 6.46101 11.9536 5.91667 10.5833 5.91667C9.21305 5.91667 7.89889 6.46101 6.92995 7.42995C5.96101 8.39889 5.41667 9.71305 5.41667 11.0833C5.41667 12.4536 5.96101 13.7678 6.92995 14.7367C7.89889 15.7057 9.21305 16.25 10.5833 16.25ZM36.4167 44.6667C34.1256 44.6664 31.8995 43.905 30.0881 42.5023C26.9177 40.0472 23.6078 36.9167 19.598 36.9167H8C6.57326 36.9167 5.41667 35.7601 5.41667 34.3333C5.41667 32.9066 6.57326 31.75 8 31.75H18.9572C23.3467 31.75 26.985 28.2568 30.6214 25.7985C32.7018 24.3921 35.2229 23.791 37.7141 24.1074C40.2052 24.4238 42.4961 25.636 44.1588 27.5178C45.8216 29.3995 46.7427 31.8222 46.75 34.3333C46.75 37.0739 45.6613 39.7022 43.7234 41.6401C41.7856 43.578 39.1572 44.6667 36.4167 44.6667ZM36.4167 39.5C37.7869 39.5 39.1011 38.9557 40.07 37.9867C41.039 37.0178 41.5833 35.7036 41.5833 34.3333C41.5833 32.963 41.039 31.6489 40.07 30.6799C39.1011 29.711 37.7869 29.1667 36.4167 29.1667C35.0464 29.1667 33.7322 29.711 32.7633 30.6799C31.7943 31.6489 31.25 32.963 31.25 34.3333C31.25 35.7036 31.7943 37.0178 32.7633 37.9867C33.7322 38.9557 35.0464 39.5 36.4167 39.5Z" fill="#FF6B6B"/>
</svg>
