<svg width="53" height="52" viewBox="0 0 53 52" fill="none" xmlns="http://www.w3.org/2000/svg">
<path d="M23.9811 35.0417C23.1199 35.6014 22.2373 35.6444 21.3331 35.1708C20.429 34.6972 19.9769 33.9437 19.9769 32.9104V19.0896C19.9769 18.0562 20.429 17.3028 21.3331 16.8292C22.2373 16.3555 23.1199 16.3986 23.9811 16.9583L34.7019 23.8042C35.0894 24.0625 35.3796 24.3854 35.5725 24.7729C35.7671 25.1604 35.8644 25.5694 35.8644 26C35.8644 26.4305 35.7671 26.8396 35.5725 27.2271C35.3796 27.6146 35.0894 27.9375 34.7019 28.1958L23.9811 35.0417ZM20.8811 51.2521C19.3741 50.9076 17.9214 50.4555 16.523 49.8958C15.1228 49.3361 13.7554 48.6257 12.4206 47.7646C11.7317 47.334 11.3554 46.7312 11.2917 45.9562C11.2263 45.1812 11.4949 44.4924 12.0977 43.8896C12.5283 43.459 13.0768 43.2119 13.7433 43.1482C14.4115 43.0827 15.0255 43.2222 15.5852 43.5667C16.5324 44.1694 17.5124 44.6749 18.5251 45.0831C19.536 45.493 20.5797 45.8271 21.6561 46.0854C22.2588 46.2576 22.7652 46.5917 23.1751 47.0877C23.5832 47.582 23.7873 48.1305 23.7873 48.7333C23.7873 49.5944 23.4971 50.2721 22.9167 50.7664C22.3346 51.2624 21.6561 51.4243 20.8811 51.2521ZM8.41647 40.2083C7.81369 40.8111 7.136 41.0798 6.38339 41.0143C5.62905 40.9506 5.03661 40.5958 4.60605 39.95C3.74494 38.7014 3.02419 37.3778 2.4438 35.9794C1.86169 34.5792 1.39842 33.1042 1.05397 31.5542C0.838694 30.7792 0.978194 30.0903 1.47247 29.4875C1.96847 28.8847 2.64703 28.5833 3.50814 28.5833C4.11092 28.5833 4.67064 28.7986 5.1873 29.2292C5.70397 29.6597 6.04842 30.1764 6.22064 30.7792C6.47897 31.8986 6.82342 32.9535 7.25397 33.9437C7.68453 34.934 8.17967 35.9028 8.73939 36.85C9.08383 37.3667 9.22333 37.9479 9.15789 38.5937C9.09417 39.2396 8.84703 39.7778 8.41647 40.2083ZM3.57272 23.4167C2.71161 23.4167 2.02272 23.1153 1.50605 22.5125C0.989388 21.9097 0.817166 21.2208 0.989388 20.4458C1.33383 18.9389 1.80744 17.4638 2.41022 16.0206C3.013 14.5791 3.74494 13.234 4.60605 11.9854C5.03661 11.3396 5.62905 10.9951 6.38339 10.9521C7.136 10.909 7.81369 11.1889 8.41647 11.7917C8.84703 12.2222 9.09417 12.7604 9.15789 13.4062C9.22333 14.0521 9.08383 14.6333 8.73939 15.15C8.17967 16.0542 7.68453 17.0117 7.25397 18.0227C6.82342 19.0353 6.47897 20.1014 6.22064 21.2208C6.04842 21.8236 5.71517 22.3403 5.22089 22.7708C4.72489 23.2014 4.1755 23.4167 3.57272 23.4167ZM31.7956 51.1875C31.0206 51.3597 30.3533 51.209 29.7936 50.7354C29.2338 50.2618 28.954 49.616 28.954 48.7979C28.954 48.1951 29.1589 47.6354 29.5688 47.1187C29.977 46.6021 30.4824 46.2576 31.0852 46.0854C35.6922 44.8799 39.4811 42.4369 42.4519 38.7565C45.4227 35.0744 46.9081 30.8222 46.9081 26C46.9081 21.1778 45.4227 16.8937 42.4519 13.1479C39.4811 9.40207 35.6922 6.96943 31.0852 5.84999C30.4824 5.67777 29.977 5.34366 29.5688 4.84766C29.1589 4.35338 28.954 3.80485 28.954 3.20207C28.954 2.38402 29.245 1.72699 29.8271 1.23099C30.4075 0.736711 31.0852 0.575683 31.8602 0.747905C37.7588 2.03957 42.6026 5.03193 46.3915 9.72499C50.1804 14.418 52.0748 19.843 52.0748 26C52.0748 32.1139 50.17 37.4958 46.3605 42.1458C42.5492 46.7958 37.6942 49.8097 31.7956 51.1875ZM15.3915 8.49791C14.8317 8.84235 14.2402 8.97152 13.6167 8.88541C12.9916 8.79929 12.4637 8.54096 12.0331 8.11041C11.4304 7.50763 11.1617 6.81874 11.2271 6.04374C11.2909 5.26874 11.6672 4.66596 12.3561 4.23541C13.6908 3.37429 15.0686 2.66388 16.4894 2.10416C17.9102 1.54443 19.3741 1.09235 20.8811 0.747905C21.6561 0.575683 22.3346 0.736711 22.9167 1.23099C23.4971 1.72699 23.7873 2.38402 23.7873 3.20207C23.7873 3.80485 23.572 4.35338 23.1415 4.84766C22.7109 5.34366 22.1942 5.67777 21.5915 5.84999C20.5151 6.10832 19.4602 6.4631 18.4269 6.91432C17.3936 7.36727 16.3817 7.89513 15.3915 8.49791Z" fill="#B56BFF"/>
</svg>
