<svg width="77" height="56" viewBox="0 0 77 56" fill="none" xmlns="http://www.w3.org/2000/svg">
<path d="M0.6875 55.5V45.875C0.6875 43.9271 1.18937 42.1361 2.19312 40.5022C3.19458 38.8705 4.52604 37.625 6.1875 36.7656C9.73958 34.9896 13.349 33.657 17.0156 32.7678C20.6823 31.8809 24.4062 31.4375 28.1875 31.4375C31.9688 31.4375 35.6927 31.8809 39.3594 32.7678C43.026 33.657 46.6354 34.9896 50.1875 36.7656C51.849 37.625 53.1804 38.8705 54.1819 40.5022C55.1856 42.1361 55.6875 43.9271 55.6875 45.875V55.5H0.6875ZM62.5625 55.5V45.1875C62.5625 42.6667 61.8613 40.2455 60.4588 37.9241C59.054 35.6049 57.0625 33.6146 54.4844 31.9531C57.4062 32.2969 60.1562 32.8835 62.7344 33.7131C65.3125 34.545 67.7188 35.5625 69.9531 36.7656C72.0156 37.9115 73.5911 39.1856 74.6797 40.5881C75.7682 41.9929 76.3125 43.526 76.3125 45.1875V55.5H62.5625ZM28.1875 28C24.4062 28 21.1693 26.6536 18.4766 23.9609C15.7839 21.2682 14.4375 18.0312 14.4375 14.25C14.4375 10.4688 15.7839 7.23177 18.4766 4.53906C21.1693 1.84635 24.4062 0.5 28.1875 0.5C31.9688 0.5 35.2057 1.84635 37.8984 4.53906C40.5911 7.23177 41.9375 10.4688 41.9375 14.25C41.9375 18.0312 40.5911 21.2682 37.8984 23.9609C35.2057 26.6536 31.9688 28 28.1875 28ZM62.5625 14.25C62.5625 18.0312 61.2161 21.2682 58.5234 23.9609C55.8307 26.6536 52.5938 28 48.8125 28C48.1823 28 47.3802 27.929 46.4062 27.7869C45.4323 27.6425 44.6302 27.4844 44 27.3125C45.5469 25.4792 46.7351 23.4453 47.5647 21.2109C48.3966 18.9766 48.8125 16.6562 48.8125 14.25C48.8125 11.8438 48.3966 9.52344 47.5647 7.28906C46.7351 5.05469 45.5469 3.02083 44 1.1875C44.8021 0.901041 45.6042 0.714271 46.4062 0.627188C47.2083 0.542396 48.0104 0.5 48.8125 0.5C52.5938 0.5 55.8307 1.84635 58.5234 4.53906C61.2161 7.23177 62.5625 10.4688 62.5625 14.25Z" fill="#6BB8FF"/>
</svg>
